<?xml version="1.0" encoding="UTF-8" standalone="no"?>
<!-- Created with Inkscape (http://www.inkscape.org/) -->

<svg
   width="220px"
   height="24px"
   viewBox="0 0 220 24"
   version="1.1"
   id="SVGRoot"
   sodipodi:docname="BannerD1.svg"
   xml:space="preserve"
   inkscape:version="1.2 (dc2aedaf03, 2022-05-15)"
   xmlns:inkscape="http://www.inkscape.org/namespaces/inkscape"
   xmlns:sodipodi="http://sodipodi.sourceforge.net/DTD/sodipodi-0.dtd"
   xmlns="http://www.w3.org/2000/svg"
   xmlns:svg="http://www.w3.org/2000/svg"><sodipodi:namedview
     id="namedview14"
     pagecolor="#ffffff"
     bordercolor="#000000"
     borderopacity="0.25"
     inkscape:showpageshadow="2"
     inkscape:pageopacity="0.0"
     inkscape:pagecheckerboard="0"
     inkscape:deskcolor="#d1d1d1"
     inkscape:document-units="px"
     showgrid="false"
     inkscape:zoom="3.8273376"
     inkscape:cx="166.04232"
     inkscape:cy="-7.1851515"
     inkscape:window-width="1920"
     inkscape:window-height="1002"
     inkscape:window-x="-8"
     inkscape:window-y="-8"
     inkscape:window-maximized="1"
     inkscape:current-layer="layer1" /><defs
     id="defs9" /><g
     inkscape:label="Layer 1"
     inkscape:groupmode="layer"
     id="layer1"><text
       xml:space="preserve"
       style="font-size:24px;font-family:Playbill;-inkscape-font-specification:Playbill;fill:#1a1a1a"
       x="26.604233"
       y="14.780129"
       id="text324"><tspan
         sodipodi:role="line"
         id="tspan322"
         x="26.604233"
         y="14.780129" /></text><text
       xml:space="preserve"
       style="font-size:24px;font-family:Playbill;-inkscape-font-specification:Playbill;fill:#1a1a1a"
       x="13.486868"
       y="18.659912"
       id="text380"><tspan
         sodipodi:role="line"
         id="tspan378"
         x="13.486868"
         y="18.659912" /></text><text
       xml:space="preserve"
       style="font-size:24px;font-family:Playbill;-inkscape-font-specification:Playbill;fill:#333333"
       x="22.354944"
       y="16.442892"
       id="text384"><tspan
         sodipodi:role="line"
         id="tspan382"
         x="22.354944"
         y="16.442892" /></text><text
       xml:space="preserve"
       style="font-size:26.6667px;font-family:Playbill;-inkscape-font-specification:Playbill;fill:#333333"
       x="25.771059"
       y="21.227867"
       id="text440"><tspan
         sodipodi:role="line"
         id="tspan438"
         x="25.771059"
         y="21.227867"
         style="font-style:normal;font-variant:normal;font-weight:normal;font-stretch:normal;font-size:26.6667px;font-family:Bahnschrift;-inkscape-font-specification:Bahnschrift;fill:#cccccc">MOBILE DIRECT</tspan></text><g
       id="g627"
       transform="matrix(0.01991602,0,0,0.02243086,8.5752527,0.76696297)"><path
         fill="#333333"
         d="M 744,64 H 280 c -35.3,0 -64,28.7 -64,64 v 768 c 0,35.3 28.7,64 64,64 h 464 c 35.3,0 64,-28.7 64,-64 V 128 C 808,92.7 779.3,64 744,64 Z m -8,824 H 288 V 136 h 448 z"
         id="path612" /><path
         fill="#e6e6e6"
         d="M 288,888 H 736 V 136 H 288 Z M 512,746 c 22.1,0 40,17.9 40,40 0,22.1 -17.9,40 -40,40 -22.1,0 -40,-17.9 -40,-40 0,-22.1 17.9,-40 40,-40 z"
         id="path614" /><path
         fill="#333333"
         d="m 472,786 a 40,40 0 1 0 80,0 40,40 0 1 0 -80,0 z"
         id="path616" /></g></g></svg>
